<mxfile host="Electron" agent="Mozilla/5.0 (Windows NT 10.0; Win64; x64) AppleWebKit/537.36 (KHTML, like Gecko) draw.io/26.0.9 Chrome/128.0.6613.186 Electron/32.2.5 Safari/537.36" version="26.0.9">
  <diagram id="7gcUSTIZ7YSJ5vT40chW" name="Page-1">
    <mxGraphModel dx="1122" dy="844" grid="1" gridSize="10" guides="1" tooltips="1" connect="1" arrows="1" fold="1" page="1" pageScale="1" pageWidth="1169" pageHeight="827" math="0" shadow="0">
      <root>
        <mxCell id="0" />
        <mxCell id="1" parent="0" />
        <mxCell id="TPWycxajwszOOKe4HPmi-3" style="edgeStyle=orthogonalEdgeStyle;rounded=0;orthogonalLoop=1;jettySize=auto;html=1;entryX=0;entryY=0.5;entryDx=0;entryDy=0;strokeColor=#66CC00;fontStyle=1" edge="1" parent="1" source="TPWycxajwszOOKe4HPmi-2" target="TPWycxajwszOOKe4HPmi-4">
          <mxGeometry relative="1" as="geometry">
            <mxPoint x="360" y="186" as="targetPoint" />
          </mxGeometry>
        </mxCell>
        <mxCell id="TPWycxajwszOOKe4HPmi-2" value="サインイン・ログイン" style="ellipse;whiteSpace=wrap;html=1;align=center;strokeColor=#66CC00;fontStyle=1" vertex="1" parent="1">
          <mxGeometry x="130" y="160" width="150" height="51" as="geometry" />
        </mxCell>
        <mxCell id="TPWycxajwszOOKe4HPmi-6" style="edgeStyle=orthogonalEdgeStyle;rounded=0;orthogonalLoop=1;jettySize=auto;html=1;strokeColor=#CCCC00;fontStyle=1" edge="1" parent="1" source="TPWycxajwszOOKe4HPmi-4" target="TPWycxajwszOOKe4HPmi-5">
          <mxGeometry relative="1" as="geometry" />
        </mxCell>
        <mxCell id="TPWycxajwszOOKe4HPmi-4" value="最初のポケモン選択" style="ellipse;whiteSpace=wrap;html=1;align=center;strokeColor=#CCCC00;fontStyle=1" vertex="1" parent="1">
          <mxGeometry x="370" y="160" width="150" height="51" as="geometry" />
        </mxCell>
        <mxCell id="TPWycxajwszOOKe4HPmi-8" style="edgeStyle=orthogonalEdgeStyle;rounded=0;orthogonalLoop=1;jettySize=auto;html=1;entryX=0;entryY=0.5;entryDx=0;entryDy=0;strokeColor=#CC6600;fontStyle=1" edge="1" parent="1" source="TPWycxajwszOOKe4HPmi-5" target="TPWycxajwszOOKe4HPmi-7">
          <mxGeometry relative="1" as="geometry" />
        </mxCell>
        <mxCell id="TPWycxajwszOOKe4HPmi-10" style="edgeStyle=orthogonalEdgeStyle;rounded=0;orthogonalLoop=1;jettySize=auto;html=1;entryX=0;entryY=0.5;entryDx=0;entryDy=0;curved=1;strokeColor=#CC6600;fontStyle=1" edge="1" parent="1" source="TPWycxajwszOOKe4HPmi-5" target="TPWycxajwszOOKe4HPmi-9">
          <mxGeometry relative="1" as="geometry" />
        </mxCell>
        <mxCell id="TPWycxajwszOOKe4HPmi-5" value="ホームページ" style="ellipse;whiteSpace=wrap;html=1;align=center;strokeColor=#CC6600;fontStyle=1" vertex="1" parent="1">
          <mxGeometry x="610" y="160" width="150" height="51" as="geometry" />
        </mxCell>
        <mxCell id="TPWycxajwszOOKe4HPmi-7" value="手持ちポケモン" style="ellipse;whiteSpace=wrap;html=1;align=center;strokeColor=#0066CC;fontStyle=1" vertex="1" parent="1">
          <mxGeometry x="850" y="160" width="150" height="51" as="geometry" />
        </mxCell>
        <mxCell id="TPWycxajwszOOKe4HPmi-9" value="ポケモンバトル" style="ellipse;whiteSpace=wrap;html=1;align=center;strokeColor=#CC0066;fontStyle=1" vertex="1" parent="1">
          <mxGeometry x="850" y="260" width="150" height="51" as="geometry" />
        </mxCell>
        <mxCell id="TPWycxajwszOOKe4HPmi-14" value="" style="curved=1;endArrow=classic;html=1;rounded=0;exitX=0.5;exitY=1;exitDx=0;exitDy=0;entryX=0.5;entryY=1;entryDx=0;entryDy=0;edgeStyle=orthogonalEdgeStyle;strokeColor=#CC6600;fontStyle=1" edge="1" parent="1" source="TPWycxajwszOOKe4HPmi-5" target="TPWycxajwszOOKe4HPmi-2">
          <mxGeometry width="50" height="50" relative="1" as="geometry">
            <mxPoint x="500" y="370" as="sourcePoint" />
            <mxPoint x="390" y="250" as="targetPoint" />
            <Array as="points">
              <mxPoint x="685" y="280" />
              <mxPoint x="205" y="280" />
            </Array>
          </mxGeometry>
        </mxCell>
      </root>
    </mxGraphModel>
  </diagram>
</mxfile>
